<?xml version="1.0" encoding="utf-8"?>
<svg enable-background="new 0 0 40 40" height="40" viewBox="0 0 40 40" width="40" xmlns="http://www.w3.org/2000/svg">
	<path d="m20 38.5c-10.201 0-18.5-8.299-18.5-18.5s8.299-18.5 18.5-18.5 18.5 8.299 18.5 18.5-8.299 18.5-18.5 18.5z" fill="#bae0bd" />
	<path d="m20 2c9.925 0 18 8.075 18 18s-8.075 18-18 18-18-8.075-18-18 8.075-18 18-18m0-1c-10.493 0-19 8.507-19 19s8.507 19 19 19 19-8.507 19-19-8.507-19-19-19z" fill="#5e9c76" />
	<g fill="#fff">
		<path d="m10 18h20v4h-20z" />
		<path d="m10 18h20v4h-20z" transform="matrix(0 1 -1 0 40 0)" />
	</g>
</svg>