<?xml version="1.0" encoding="utf-8"?>
<svg height="40" viewBox="0 0 40 40" width="40" xmlns="http://www.w3.org/2000/svg">
	<path d="m20 38.5c-7.898437 0-14.5-2.699219-14.5-6v-25.5h29v25.5c0 3.300781-6.601562 6-14.5 6zm0 0" fill="#dcd5f2" />
	<path d="m34 7.5v25c0 2.601563-5.800781 5.5-14 5.5s-14-2.898437-14-5.5v-25zm1-1h-30v26c0 3.601563 6.699219 6.5 15 6.5s15-2.898437 15-6.5c0-1.300781 0-24.699219 0-26zm0 0" fill="#8b75a1" />
	<path d="m20 11.5c-8.699219 0-14.5-2.601562-14.5-5 0-2.398437 5.800781-5 14.5-5s14.5 2.601563 14.5 5c0 2.398438-5.800781 5-14.5 5zm0 0" fill="#dcd5f2" />
	<g fill="#8b75a1">
		<path d="m20 2c8.699219 0 14 2.601563 14 4.5 0 1.898438-5.300781 4.5-14 4.5s-14-2.601562-14-4.5c0-1.898437 5.300781-4.5 14-4.5m0-1c-8.300781 0-15 2.5-15 5.5s6.699219 5.5 15 5.5 15-2.5 15-5.5-6.699219-5.5-15-5.5zm0 0" />
		<path d="m20 21c-8.398437 0-15-2.601562-15-5.800781h1c0 2.300781 5.601563 4.800781 14 4.800781 8.398438 0 14-2.5 14-4.800781h1c0 3.199219-6.601562 5.800781-15 5.800781zm0 0" />
		<path d="m20 30c-8.398437 0-15-3-15-6.800781h1c0 3.101562 6.398438 5.800781 14 5.800781 7.601563 0 14-2.601562 14-5.800781h1c0 3.800781-6.601562 6.800781-15 6.800781zm0 0" />
	</g>
</svg>