<?xml version="1.0" encoding="utf-8"?>
<svg enable-background="new 0 0 1000 1000" height="40" viewBox="0 0 40 40" width="40" xmlns="http://www.w3.org/2000/svg">
	<path d="m36.655589 35.675849h-33.3111783c-1.6195711 0-2.9392216-1.31965-2.9392216-2.939222v-25.4732537c0-1.6195711 1.3196505-2.9392216 2.9392216-2.9392216h33.3111783c1.619571 0 2.939222 1.3196505 2.939222 2.9392216v25.4732537c0 1.619572-1.319651 2.939222-2.939222 2.939222zm-33.3111783-29.3922162c-.539857 0-.9797405.4398835-.9797405.9797405v25.4732537c0 .539858.4398835.979741.9797405.979741h33.3111783c.539857 0 .979741-.439883.979741-.979741v-25.4732537c0-.539857-.439884-.9797405-.979741-.9797405z" fill="#4e7ab5" stroke-width=".039989" />
	<path d="m35.563878 13.229793-1.591578-1.159693-.607839-1.871504h-1.967479l-1.591579-1.1596929-1.591578 1.1596929h-1.975477l-.607839 1.871504-1.591579 1.159693.607839 1.871505-.607839 1.871504 1.591579 1.159693.259931.795789c-.004.03199-.004.05998-.004.09198v9.797405c0 .395895.239937.7558.60384.903761.363904.147961.787792.06798 1.067717-.211944l2.247405-2.247405 2.247405 2.247405c.18795.18795.435885.287924.691817.287924.123967 0 .251933-.02399.3759-.07598.367903-.15196.603841-.507866.603841-.903761v-9.797409c0-.03199 0-.06398-.004-.09198l.259931-.795789 1.591578-1.159693-.607839-1.871504zm-9.229555.747802.955746-.695815.367903-1.123703h1.183687l.955746-.695816.955747.695816h1.183687l.367902 1.123703.955747.695815-.367902 1.123703.367902 1.123702-.955747.695816-.367902 1.123702h-1.183687l-.955747.695816-.955746-.695816h-1.183687l-.367903-1.123702-.955746-.695816.367902-1.123702zm4.154899 11.209032c-.383898-.383898-1.003734-.383898-1.383633 0l-1.267665 1.263665v-6.446293h.367903l1.591578 1.159693 1.591579-1.159693h.367903v6.446293z" fill="#4e7ab5" stroke-width=".039989" />
	<path d="m19.95601 18.773707v-9.753138h-11.8382624v9.753138h-4.8385327l10.7576641 14.55098 10.766449-14.55098z" fill="#5e9c76" />
</svg>