<?xml version="1.0" encoding="utf-8"?>
<svg width="40" height="40" enable-background="new 0 0 1000 1000" version="1.1" viewBox="0 0 40 40" xml:space="preserve" xmlns="http://www.w3.org/2000/svg">
	<path d="m23.15 16.161c0 1.9234-1.4097 10.84-3.15 10.84s-3.15-8.9123-3.15-10.84c0-1.9234 1.4097-3.4845 3.15-3.4845s3.15 1.561 3.15 3.4845z" fill="#f00" stroke-width=".039822" />
	<path d="m18.045 30.887c0 1.0195 0.82831 1.8478 1.8478 1.8478 1.0195 0 1.8478-0.82831 1.8478-1.8478 0-1.0195-0.82831-1.8478-1.8478-1.8478-1.0195-4e-3 -1.8478 0.82432-1.8478 1.8478z" fill="#f00" />
	<path d="m36.033 37.359h-32.065c-1.2584 0-2.3814-0.64911-3.0106-1.7363-0.6292-1.0872-0.6292-2.3893 0-3.4765l16.033-27.768c0.6292-1.0872 1.7522-1.7363 3.0106-1.7363s2.3814 0.64911 3.0106 1.7363l16.033 27.768c0.6292 1.0872 0.6292 2.3893 0 3.4765s-1.7562 1.7363-3.0106 1.7363zm-16.033-32.905c-0.60132 0-1.1389 0.31062-1.4416 0.83229l-16.029 27.768c-0.29867 0.52167-0.29867 1.1429 0 1.6606 0.29867 0.52167 0.84025 0.83229 1.4416 0.83229h32.061c0.60132 0 1.1389-0.31062 1.4416-0.83229 0.29867-0.52168 0.29867-1.1429 0-1.6606l-16.033-27.768c-0.30265-0.52167-0.84025-0.83229-1.4416-0.83229z" fill="#f60" stroke-width=".039822" />
</svg>