<?xml version="1.0" encoding="utf-8"?>
<svg enable-background="new 0 0 1000 1000" height="40" viewBox="0 0 40 40" width="40" xmlns="http://www.w3.org/2000/svg">
	<g fill="#ff7f2a" transform="matrix(.04007952 0 0 .04007952 -.03976 -.03976)">
		<path d="m34.5 10v980z" />
		<path d="m59 10v980z" />
		<path d="m83.5 10v980z" />
		<path d="m108 10v980z" />
		<path d="m132.5 10v980z" />
		<path d="m157 10v980z" />
		<path d="m181.5 10v980z" />
		<path d="m206 10v980z" />
		<path d="m230.5 10v980z" />
		<path d="m255 10v980z" />
		<path d="m279.5 10v980z" />
		<path d="m304 10v980z" />
		<path d="m328.5 10v980z" />
		<path d="m353 10v980z" />
		<path d="m377.5 10v980z" />
		<path d="m402 10v980z" />
		<path d="m426.5 10v980z" />
		<path d="m451 10v980z" />
		<path d="m475.5 10v980z" />
		<path d="m500 10v980z" />
		<path d="m524.5 10v980z" />
		<path d="m549 10v980z" />
		<path d="m573.5 10v980z" />
		<path d="m598 10v980z" />
		<path d="m622.5 10v980z" />
		<path d="m647 10v980z" />
		<path d="m671.5 10v980z" />
		<path d="m696 10v980z" />
		<path d="m720.5 10v980z" />
		<path d="m745 10v980z" />
		<path d="m769.5 10v980z" />
		<path d="m794 10v980z" />
		<path d="m818.5 10v980z" />
		<path d="m843 10v980z" />
		<path d="m867.5 10v980z" />
		<path d="m892 10v980z" />
		<path d="m916.5 10v980z" />
		<path d="m941 10v980z" />
		<path d="m965.5 10v980z" />
		<path d="m10 34.5h980z" />
		<path d="m10 59h980z" />
		<path d="m10 83.5h980z" />
		<path d="m10 108h980z" />
		<path d="m10 132.5h980z" />
		<path d="m10 157h980z" />
		<path d="m10 181.5h980z" />
		<path d="m10 206h980z" />
		<path d="m10 230.5h980z" />
		<path d="m10 255h980z" />
		<path d="m10 279.5h980z" />
		<path d="m10 304h980z" />
		<path d="m10 328.5h980z" />
		<path d="m10 353h980z" />
		<path d="m10 377.5h980z" />
		<path d="m10 402h980z" />
		<path d="m10 426.5h980z" />
		<path d="m10 451h980z" />
		<path d="m10 475.5h980z" />
		<path d="m10 500h980z" />
		<path d="m10 524.5h980z" />
		<path d="m10 549h980z" />
		<path d="m10 573.5h980z" />
		<path d="m10 598h980z" />
		<path d="m10 622.5h980z" />
		<path d="m10 647h980z" />
		<path d="m10 671.5h980z" />
		<path d="m10 696h980z" />
		<path d="m10 720.5h980z" />
		<path d="m10 745h980z" />
		<path d="m10 769.5h980z" />
		<path d="m10 794h980z" />
		<path d="m10 818.5h980z" />
		<path d="m10 843h980z" />
		<path d="m10 867.5h980z" />
		<path d="m10 892h980z" />
		<path d="m10 916.5h980z" />
		<path d="m10 941h980z" />
		<path d="m10 965.5h980z" />
		<path d="m700.4 119.5c-55.9-40.4-126-60.5-210.5-60.5-64.3 0-118.5 14.2-162.5 42.5-69.9 44.4-107.1 119.8-111.6 226.1h162c0-31 9-60.8 27.1-89.5s48.8-43.1 92-43.1c44 0 74.3 11.7 90.8 34.9 16.6 23.4 24.9 49.2 24.9 77.5 0 24.6-12.3 47.2-27.2 67.7-8.2 12-19 22.9-32.4 33 0 0-87.9 56.4-126.5 101.6-22.4 26.3-24.4 65.6-26.4 122-.1 4 1.4 12.3 15.4 12.3h126c12.5 0 15.1-9.3 15.3-13.3.9-20.5 3.2-31 7-42.9 7.1-22.4 26.3-41.9 48-58.8l44.6-30.8c40.2-31.4 72.4-57.1 86.5-77.3 24.2-33.2 41.2-74.1 41.2-122.5.1-79-27.9-138.7-83.7-178.9zm-213.1 621.8c-55.9-1.7-101.9 36.9-103.7 97.5-1.8 60.5 42 100.5 97.9 102.2 58.3 1.7 103.1-35.7 104.9-96.2 1.8-60.6-40.8-101.8-99.1-103.5z" />
	</g>
</svg>