<?xml version="1.0" encoding="utf-8"?>
<svg enable-background="new 0 0 1000 1000" height="40" viewBox="0 0 40 40" width="40" xmlns="http://www.w3.org/2000/svg">
	<g fill="#4e7ab5" transform="matrix(.04018293 0 0 .04018293 -.089459 -.0914648)">
		<path d="m310.9 236.9c20.9 0 37.8-16.9 37.8-37.8v-151.3c0-20.9-16.9-37.8-37.8-37.8s-37.8 16.9-37.8 37.8v151.3c0 20.9 17 37.8 37.8 37.8z" />
		<path d="m500 236.9c20.9 0 37.8-16.9 37.8-37.8v-151.3c0-20.9-16.9-37.8-37.8-37.8s-37.8 16.9-37.8 37.8v151.3c0 20.9 16.9 37.8 37.8 37.8z" />
		<path d="m386.6 82.5h37.8v75.6h-37.8z" />
		<path d="m575.6 82.5h37.8v75.6h-37.8z" />
		<path d="m840.3 82.5h-75.6v75.6h75.6c20.9 0 37.8 17 37.8 37.8v680.6c0 20.9-16.9 37.8-37.8 37.8h-680.6c-20.8 0-37.8-16.9-37.8-37.8v-680.6c0-20.8 17-37.8 37.8-37.8h75.6v-75.6h-75.6c-62.7 0-113.5 50.8-113.5 113.4v680.6c0 62.8 50.8 113.5 113.5 113.5h680.6c62.7 0 113.4-50.7 113.4-113.4v-680.7c.1-62.7-50.7-113.4-113.4-113.4z" />
		<path d="m689.1 236.9c20.9 0 37.8-16.9 37.8-37.8v-151.3c0-20.9-16.9-37.8-37.8-37.8s-37.8 16.9-37.8 37.8v151.3c0 20.9 16.9 37.8 37.8 37.8z" />
		<path d="m273.1 425.1h453.8c20.9 0 37.8-16.9 37.8-37.8s-16.9-37.8-37.8-37.8h-453.8c-20.9 0-37.8 16.9-37.8 37.8s16.9 37.8 37.8 37.8z" />
		<path d="m726.9 536.2h-453.8c-20.9 0-37.8 16.9-37.8 37.8s16.9 37.8 37.8 37.8h453.8c20.9 0 37.8-16.9 37.8-37.8s-16.9-37.8-37.8-37.8z" />
		<path d="m726.9 730h-453.8c-20.9 0-37.8 16.9-37.8 37.8s16.9 37.8 37.8 37.8h453.8c20.9 0 37.8-16.9 37.8-37.8s-16.9-37.8-37.8-37.8z" />
	</g>
</svg>