<?xml version="1.0" encoding="utf-8"?>
<svg enable-background="new 0 0 1000 1000" height="40" viewBox="0 0 40 40" width="40" xmlns="http://www.w3.org/2000/svg">
	<g fill="#5e9c76" transform="matrix(.03998941 0 0 .03998941 .005295 .0052954)">
		<path d="m916.5 892h-833c-40.5 0-73.5-33-73.5-73.5v-637c0-40.5 33-73.5 73.5-73.5h833c40.5 0 73.5 33 73.5 73.5v637c0 40.5-33 73.5-73.5 73.5zm-833-735c-13.5 0-24.5 11-24.5 24.5v637c0 13.5 11 24.5 24.5 24.5h833c13.5 0 24.5-11 24.5-24.5v-637c0-13.5-11-24.5-24.5-24.5z" />
		<path d="m475.5 304h-294c-13.5 0-24.5-11-24.5-24.5s11-24.5 24.5-24.5h294c13.5 0 24.5 11 24.5 24.5s-11 24.5-24.5 24.5z" />
		<path d="m475.5 451h-294c-13.5 0-24.5-11-24.5-24.5s11-24.5 24.5-24.5h294c13.5 0 24.5 11 24.5 24.5s-11 24.5-24.5 24.5z" />
		<path d="m475.5 549h-294c-13.5 0-24.5-11-24.5-24.5s11-24.5 24.5-24.5h294c13.5 0 24.5 11 24.5 24.5s-11 24.5-24.5 24.5z" />
		<path d="m475.5 647h-294c-13.5 0-24.5-11-24.5-24.5s11-24.5 24.5-24.5h294c13.5 0 24.5 11 24.5 24.5s-11 24.5-24.5 24.5z" />
		<path d="m426.5 745h-245c-13.5 0-24.5-11-24.5-24.5s11-24.5 24.5-24.5h245c13.5 0 24.5 11 24.5 24.5s-11 24.5-24.5 24.5z" />
		<path d="m889.2 330.7-39.8-29-15.2-46.8h-49.2l-39.8-29-39.8 29h-49.4l-15.2 46.8-39.8 29 15.2 46.8-15.2 46.8 39.8 29 6.5 19.9c-.1.8-.1 1.5-.1 2.3v245c0 9.9 6 18.9 15.1 22.6s19.7 1.7 26.7-5.3l56.2-56.2 56.2 56.2c4.7 4.7 10.9 7.2 17.3 7.2 3.1 0 6.3-.6 9.4-1.9 9.2-3.8 15.1-12.7 15.1-22.6v-245c0-.8 0-1.6-.1-2.3l6.5-19.9 39.8-29-15.2-46.8zm-230.8 18.7 23.9-17.4 9.2-28.1h29.6l23.9-17.4 23.9 17.4h29.6l9.2 28.1 23.9 17.4-9.2 28.1 9.2 28.1-23.9 17.4-9.2 28.1h-29.6l-23.9 17.4-23.9-17.4h-29.6l-9.2-28.1-23.9-17.4 9.2-28.1zm103.9 280.3c-9.6-9.6-25.1-9.6-34.6 0l-31.7 31.6v-161.2h9.2l39.8 29 39.8-29h9.2v161.2z" />
	</g>
</svg>