<?xml version="1.0" encoding="utf-8"?>
<svg height="40" viewBox="0 0 40 40" width="40" xmlns="http://www.w3.org/2000/svg">
	<path d="m21 24.148438-12.144531 12.144531-4.148438-4.148438 12.144532-12.144531-12.144532-12.144531 4.148438-4.148438 12.144531 12.144532 12.144531-12.144532 4.148438 4.148438-12.144531 12.144531 12.144531 12.144531-4.148438 4.148438zm0 0" fill="#f78f8f" />
	<path d="m33.144531 4.414063 3.441407 3.441406-12.144532 12.144531 12.144532 12.144531-3.441407 3.441407-12.144531-12.144532-12.144531 12.144532-3.441406-3.441407 12.144531-12.144531-12.144531-12.144531 3.441406-3.441406 12.144531 12.144531zm0-1.414063-12.144531 12.144531-12.144531-12.144531-4.855469 4.855469 12.144531 12.144531-12.144531 12.144531 4.855469 4.855469 12.144531-12.144531 12.144531 12.144531 4.855469-4.855469-12.144531-12.144531 12.144531-12.144531zm0 0" fill="#c74343" />
</svg>