<?xml version="1.0" encoding="utf-8"?>
<svg enable-background="new 0 0 1000 1000" height="40" viewBox="0 0 40 40" width="40" xmlns="http://www.w3.org/2000/svg">
	<path d="m1486.9 748.8-1386.9-1386.9v-2121.9-2121.9l1391.2-1391.2 1386.9-1386.9h2121.9 2121.9l1391.2 1391.2 1386.9 1386.9v2121.9 2121.9l-1391.2 1391.2-1386.9 1386.9h-2121.9-2121.9zm2769.3-1780.7 678.1-678.1 686.9 686.9 691.2 691.2 525-525 525-525-686.9-686.9-691.1-691.2 700-700 700-700-503.1-503.1c-275.6-275.6-520.6-503.1-546.9-503.1-21.9 0-350 306.3-721.9 678.1l-678.1 678.1-678.1-678.1c-371.9-371.9-695.6-678.1-721.9-678.1s-271.3 227.5-546.9 503.1l-503.1 503.1 700 700 700 700-686.9 686.9-682.5 682.5 485.6 520.6c266.9 284.4 507.5 516.2 533.8 516.2 21.8 0 350-306.2 721.8-678.1z" fill="#c74343" transform="matrix(.00376924 0 0 -.00376924 1.1538 9.5968976)" />
</svg>