<?xml version="1.0" encoding="utf-8"?>
<svg enable-background="new 0 0 1000 1000" height="40" viewBox="0 0 40 40" width="40" xmlns="http://www.w3.org/2000/svg">
	<g fill="#8b75a1" transform="matrix(.004038331 0 0 -.004038331 -.191703 9.70228835)">
		<path d="m4474.6 2217.1c-2499.2-278.6-4374.6-2314.8-4374.6-4755.2 0-568.9 66.7-1008.4 235.4-1498.8 255-757.2 659.1-1388.9 1243.7-1946 1667.5-1592.9 4241.2-1812.6 6171.6-529.7 902.4 604.2 1565.5 1463.4 1902.9 2463.9 655.2 1961.7-23.5 4076.5-1710.6 5328-957.4 710.2-2291.3 1071.2-3468.4 937.8zm1071.1-623.8c2205-278.6 3841.1-2197.1 3719.4-4362.9-58.9-1043.6-494.3-1993.1-1247.6-2722.8-553.2-537.6-1200.6-906.4-1934.3-1102.6-353.1-94.1-463-105.9-1078.9-105.9-600.3-3.9-729.8 7.8-1039.7 90.2-1553.7 408-2711.1 1538-3127 3056.3-70.6 251.1-86.3 415.9-86.3 988.7 0 592.5 11.8 729.8 86.3 1004.4 341.3 1263.5 1145.6 2220.8 2338.4 2785.8 729.7 345.2 1545.8 470.8 2369.7 368.8z" />
		<path d="m2771.9-917.7c-117.7-153-223.6-274.6-239.3-274.6-11.8 0-74.5 54.9-137.3 117.7-62.9 66.6-133.5 117.6-157 117.6-54.9 0-215.8-164.8-215.8-219.7 0-19.6 121.6-156.9 270.7-306l266.8-266.8 325.6 408.1c180.5 219.7 345.3 427.7 364.9 455.1 47.1 58.9-109.8 243.3-204 243.3-35.3-4-156.9-125.6-274.6-274.7z" />
		<path d="m3733.1-1278.7c-82.4-113.8-78.5-200.1 7.8-278.5 66.7-58.9 258.9-66.7 1942.1-66.7 1643.9 0 1871.5 7.9 1926.4 62.8 82.4 82.4 78.5 223.6-7.9 302.1-66.7 58.8-259 66.7-1942.1 66.7h-1867.4z" />
		<path d="m2764-2314.5-243.2-298.2-133.4 145.2c-121.6 133.4-137.3 141.2-215.8 90.2-188.3-125.5-180.5-164.8 86.3-451.2 137.3-145.1 266.8-270.7 290.3-274.6 35.3-7.8 604.2 670.9 706.2 843.6 23.5 43.2 7.9 86.3-70.6 153-58.9 51-121.6 90.2-141.2 90.2s-145.2-133.4-278.6-298.2z" />
		<path d="m3748.8-2487.1c-98.1-98.1-102-211.9 0-313.9 78.5-78.5 129.5-78.5 2197.1-78.5s2118.7 0 2197.1 78.5c94.2 94.2 98.1 192.3 23.5 298.2-54.9 70.6-129.5 74.5-2197.1 86.3-2102.9 7.9-2142.1 7.9-2220.6-70.6z" />
		<path d="m2764-3687.7-239.3-294.3-129.5 137.3c-70.6 78.5-145.2 141.2-164.8 141.2-54.9 0-219.7-184.4-204-227.5 23.5-58.9 502.2-557.1 533.6-557.1 15.7 3.9 121.6 121.7 235.4 266.8 109.8 145.2 266.8 349.2 349.2 455.1l149.1 188.3-105.9 94.2c-62.8 51-125.6 94.1-145.2 94.1-19.6.1-145.2-133.3-278.6-298.1z" />
		<path d="m3737-3734.8c-86.3-94.2-82.4-215.8 3.9-294.3 66.7-58.9 239.3-66.7 1702.8-66.7 1526.2 0 1632.1 3.9 1691 70.6 86.3 94.2 82.4 215.8-3.9 294.3-66.7 58.8-239.3 66.7-1702.8 66.7-1526.2 0-1632.1-3.9-1691-70.6z" />
	</g>
</svg>