<?xml version="1.0" encoding="utf-8"?>
<svg enable-background="new 0 0 1000 1000" height="40" viewBox="0 0 40 40" width="40" xmlns="http://www.w3.org/2000/svg">
	<g fill="#4e7ab5" transform="matrix(.04142285 0 0 .03985211 -.711425 38.329496)">
		<path d="m950.9-418.5s-124.8 309.9-532.8 159.9l31.3-76.3s27.8-75-68.2-57l-269.6 71.7s-61.2 18.4-32.7 72l154.4 262s46.7 42.8 76.2-10.4l30.9-76.6c.1-.2 505 191.8 610.5-345.3z" />
		<path d="m49.1-518.7s132.4-306.7 536.6-146.5l-33.3 75.6s-29.6 74.2 66.8 58.7l271.3-64.8s61.7-16.9 34.3-71.2l-147.5-265.7s-45.7-44.1-76.6 8.3l-32.8 75.9s-499.9-204.5-618.8 329.7z" />
	</g>
</svg>